<svg width="34" height="30" viewBox="0 0 34 30" fill="none" xmlns="http://www.w3.org/2000/svg"><path d="M5.5 8a3.5 3.5 0 1 0 0-7 3.5 3.5 0 0 0 0 7z" stroke="#387CDF" stroke-width="2" stroke-miterlimit="10"/><path d="M15 19c-4 0-4-7-10-7a4.141 4.141 0 0 0-4 4v13h8v-7M19 19c4 0 4-7 10-7a4.142 4.142 0 0 1 4 4v13h-8v-7" stroke="#387CDF" stroke-width="2" stroke-miterlimit="10" stroke-linecap="square"/><path d="M28.5 8a3.5 3.5 0 1 0 0-7 3.5 3.5 0 0 0 0 7z" stroke="#387CDF" stroke-width="2" stroke-miterlimit="10"/></svg>